<svg xmlns="http://www.w3.org/2000/svg" xmlns:xlink="http://www.w3.org/1999/xlink" viewBox="0 0 64 64" version="1.1" x="0px" y="0px"><title>10</title><desc>Created with Sketch.</desc><g stroke="none" stroke-width="1" fill="none" fill-rule="evenodd"><g fill-rule="nonzero" fill="#000000"><path d="M31.4981875,56.9952542 L25.5499938,40.1485346 L7.48551515,39.6838088 C11.0066397,49.6236854 20.4018939,56.7852013 31.4981751,56.9952539 Z M7.00675121,38.1893447 L46.9431315,9.72051125 C42.7155627,6.74630553 37.5617171,5 32,5 C17.6405965,5 6,16.6405965 6,31 C6,33.49405 6.35116623,35.9060807 7.00675121,38.1893447 Z M48.3992222,10.8230679 L32.7507581,56.989369 C46.7629575,56.5920551 58,45.1083035 58,31 C58,22.858168 54.2576301,15.5904133 48.3992222,10.8230679 Z M32,60 C15.9837423,60 3,47.0162577 3,31 C3,14.9837423 15.9837423,2 32,2 C48.0162577,2 61,14.9837423 61,31 C61,47.0162577 48.0162577,60 32,60 Z M27.7403937,37.1937671 L32.1899303,49.4682766 L43.4919809,15.8632838 L14.0629536,36.841902 L27.7403937,37.1937671 Z M36.5462656,37.208508 L36.5513785,37.193243 L50.2288186,36.8413779 L20.7997913,15.8627597 L28.1451539,37.208508 L36.5462656,37.208508 Z M35.5345475,40.2290792 L29.1845736,40.2290792 L32.4024403,49.5802545 L35.5345475,40.2290792 Z M38.7416234,40.1480105 L32.4559833,58.914329 L14.9356696,8 L59.2916172,39.6193425 L38.7416234,40.1480105 Z"></path></g></g></svg>