<svg xmlns="http://www.w3.org/2000/svg" xmlns:xlink="http://www.w3.org/1999/xlink" xml:space="preserve" style="shape-rendering:geometricPrecision;text-rendering:geometricPrecision;image-rendering:optimizeQuality;" viewBox="0 0 100 100" x="0px" y="0px" fill-rule="evenodd" clip-rule="evenodd"><defs><style type="text/css">
   
    .fil0 {fill:black;fill-rule:nonzero}
   
  </style></defs><g><path class="fil0" d="M25.264 7.12801l49.472 0c8.25125,14.2915 16.5143,28.577 24.7596,42.872 -8.24534,14.295 -16.5037,28.5829 -24.7596,42.872l-49.472 0c-8.25125,-14.2915 -16.5143,-28.577 -24.7596,-42.872 8.24534,-14.295 16.5037,-28.5829 24.7596,-42.872zm-17.9576 42.872c7.11502,12.3225 14.2229,24.6439 21.3368,36.9664l42.7137 0c7.11384,-12.3225 14.2218,-24.6439 21.3368,-36.9664 -7.11502,-12.3225 -14.2229,-24.6439 -21.3368,-36.9664l-42.7137 0c-7.11384,12.3225 -14.2218,24.6439 -21.3368,36.9664z"></path></g></svg>